<svg style="object-fit:cover" id="my-svg" version="1" baseProfile="full" width="100%" height="100%" viewBox="0 0 1536 796" xmlns="http://www.w3.org/2000/svg"><rect width="1536" height="796" fill="#23232e"/><defs><linearGradient id="linear-gradient" x1="1" x2="0" y1="0.5" y2="0.5"><stop offset="0%" stop-color="#23232e90"/><stop offset="100%" stop-color="#aee5d190"/></linearGradient></defs><path transform="scale(1, 1)" d="M 0,796 V 0,398 C 118.42857142857139,394.3571428571429 236.85714285714278,390.7142857142857 382,412 C 527.1428571428572,433.2857142857143 699.0000000000002,479.5 839,476 C 978.9999999999998,472.5 1087.142857142857,419.2857142857143 1198,398 C 1308.857142857143,376.7142857142857 1422.4285714285716,387.3571428571429 1536,398 C 1536,398 1536,796 1536,796 Z" stroke="none" stroke-width="0" fill="url(#linear-gradient)" class="transition-all duration-300 ease-in-out delay-150" style="transform-origin: center center;"/><defs><linearGradient id="linear-gradient" x1="1" x2="0" y1="0.5" y2="0.5"><stop offset="0%" stop-color="#23232eff"/><stop offset="100%" stop-color="#aee5d1ff"/></linearGradient></defs><path transform="scale(1, 1)" d="M 0,796 V 0,597 C 121.96428571428572,633.6071428571429 243.92857142857144,670.2142857142857 381,684 C 518.0714285714286,697.7857142857143 670.2500000000001,688.75 810,655 C 949.7499999999999,621.25 1077.0714285714284,562.7857142857143 1196,549 C 1314.9285714285716,535.2142857142857 1425.4642857142858,566.1071428571429 1536,597 C 1536,597 1536,796 1536,796 Z" stroke="none" stroke-width="0" fill="url(#linear-gradient)" class="transition-all duration-300 ease-in-out delay-150" style="transform-origin: center center;"/></svg>