<svg id="visual" viewBox="0 0 900 600" width="900" height="600" xmlns="http://www.w3.org/2000/svg" xmlns:xlink="http://www.w3.org/1999/xlink" version="1.1"><rect x="0" y="0" width="900" height="600" fill="#AEE5D1"></rect><path d="M0 387L18.8 390.3C37.7 393.7 75.3 400.3 112.8 403.3C150.3 406.3 187.7 405.7 225.2 406C262.7 406.3 300.3 407.7 337.8 410.8C375.3 414 412.7 419 450.2 419.7C487.7 420.3 525.3 416.7 562.8 409.3C600.3 402 637.7 391 675.2 392.5C712.7 394 750.3 408 787.8 418.7C825.3 429.3 862.7 436.7 881.3 440.3L900 444L900 601L881.3 601C862.7 601 825.3 601 787.8 601C750.3 601 712.7 601 675.2 601C637.7 601 600.3 601 562.8 601C525.3 601 487.7 601 450.2 601C412.7 601 375.3 601 337.8 601C300.3 601 262.7 601 225.2 601C187.7 601 150.3 601 112.8 601C75.3 601 37.7 601 18.8 601L0 601Z" fill="#444454"></path><path d="M0 444L18.8 452.5C37.7 461 75.3 478 112.8 482.2C150.3 486.3 187.7 477.7 225.2 470.5C262.7 463.3 300.3 457.7 337.8 453C375.3 448.3 412.7 444.7 450.2 444.8C487.7 445 525.3 449 562.8 450C600.3 451 637.7 449 675.2 451.3C712.7 453.7 750.3 460.3 787.8 464.3C825.3 468.3 862.7 469.7 881.3 470.3L900 471L900 601L881.3 601C862.7 601 825.3 601 787.8 601C750.3 601 712.7 601 675.2 601C637.7 601 600.3 601 562.8 601C525.3 601 487.7 601 450.2 601C412.7 601 375.3 601 337.8 601C300.3 601 262.7 601 225.2 601C187.7 601 150.3 601 112.8 601C75.3 601 37.7 601 18.8 601L0 601Z" fill="#23232e"></path><path d="M0 536L18.8 533.2C37.7 530.3 75.3 524.7 112.8 526.2C150.3 527.7 187.7 536.3 225.2 535.8C262.7 535.3 300.3 525.7 337.8 524.2C375.3 522.7 412.7 529.3 450.2 527.2C487.7 525 525.3 514 562.8 509.2C600.3 504.3 637.7 505.7 675.2 507.3C712.7 509 750.3 511 787.8 516.3C825.3 521.7 862.7 530.3 881.3 534.7L900 539L900 601L881.3 601C862.7 601 825.3 601 787.8 601C750.3 601 712.7 601 675.2 601C637.7 601 600.3 601 562.8 601C525.3 601 487.7 601 450.2 601C412.7 601 375.3 601 337.8 601C300.3 601 262.7 601 225.2 601C187.7 601 150.3 601 112.8 601C75.3 601 37.7 601 18.8 601L0 601Z" fill="#1b1b23"></path></svg>