<svg id="visual" viewBox="0 0 900 600" width="900" height="600" xmlns="http://www.w3.org/2000/svg" xmlns:xlink="http://www.w3.org/1999/xlink" version="1.1"><rect x="0" y="0" width="900" height="600" fill="#AEE5D1"></rect><defs><linearGradient id="grad1_0" x1="33.3%" y1="0%" x2="100%" y2="100%"><stop offset="20%" stop-color="#aee5d1" stop-opacity="1"></stop><stop offset="80%" stop-color="#aee5d1" stop-opacity="1"></stop></linearGradient></defs><defs><linearGradient id="grad2_0" x1="0%" y1="0%" x2="66.7%" y2="100%"><stop offset="20%" stop-color="#aee5d1" stop-opacity="1"></stop><stop offset="80%" stop-color="#aee5d1" stop-opacity="1"></stop></linearGradient></defs><g transform="translate(900, 0)"><path d="M0 378.6C-50.9 375.2 -101.8 371.8 -144.9 349.8C-188 327.8 -223.2 287.2 -246.8 246.8C-270.3 206.4 -282.1 166.2 -302.1 125.1C-322.1 84 -350.4 42 -378.6 0L0 0Z" fill="#23232E"></path></g><g transform="translate(0, 600)"><path d="M0 -378.6C48 -371.6 96 -364.6 144.3 -348.3C192.6 -332.1 241.2 -306.6 267.7 -267.7C294.2 -228.8 298.4 -176.6 313.2 -129.7C328 -82.9 353.3 -41.4 378.6 0L0 0Z" fill="#23232E"></path></g></svg>